<?xml version="1.0" encoding="iso-8859-1"?>
<!-- Uploaded to: SVG Repo, www.svgrepo.com, Generator: SVG Repo Mixer Tools -->
<svg height="800px" width="800px" version="1.1" id="Layer_1" xmlns="http://www.w3.org/2000/svg" xmlns:xlink="http://www.w3.org/1999/xlink" 
	 viewBox="0 0 512.001 512.001" xml:space="preserve">
<g>
	<path style="fill:#FBC640;" d="M178.79,155.343H33.988c-10.91,0-19.755-8.845-19.755-19.755V11.319h60.65l31.506,30.862h92.157
		v93.407C198.545,146.498,189.7,155.343,178.79,155.343z"/>
	<path style="fill:#FBC640;" d="M478.012,308.204H333.21c-10.91,0-19.755-8.845-19.755-19.755V164.179h60.65l31.506,30.862h92.157
		v93.407C497.767,299.359,488.922,308.204,478.012,308.204z"/>
	<path style="fill:#FBC640;" d="M478.012,500.681H333.21c-10.91,0-19.755-8.845-19.755-19.755V356.657h60.65l31.506,30.862h92.157
		v93.407C497.767,491.837,488.922,500.681,478.012,500.681z"/>
</g>
<g>
	<path style="fill:#231F20;" d="M497.767,183.723H410.23l-28.205-27.629c-2.115-2.072-4.959-3.233-7.921-3.233h-60.65
		c-6.251,0-11.319,5.067-11.319,11.319v60.693H117.707v-58.21h61.082c17.134,0,31.074-13.939,31.074-31.074V42.181
		c0-6.251-5.067-11.319-11.319-11.319h-87.535L82.804,3.233C80.688,1.16,77.844,0,74.883,0h-60.65C7.982,0,2.915,5.067,2.915,11.319
		v124.269c0,17.134,13.939,31.074,31.074,31.074H95.07v113.291c0,6.251,5.067,11.319,11.319,11.319s11.319-5.067,11.319-11.319
		V247.51h184.429v40.938c0,17.134,13.939,31.074,31.074,31.074h144.803c17.134,0,31.074-13.939,31.074-31.074v-93.406
		C509.085,188.79,504.018,183.723,497.767,183.723z M25.552,135.588V22.638h44.71l28.205,27.629
		c2.115,2.072,4.959,3.233,7.921,3.233h80.838v82.089c0,4.651-3.784,8.436-8.436,8.436H33.988
		C29.336,144.024,25.552,140.239,25.552,135.588z M486.448,288.448c0,4.652-3.784,8.436-8.436,8.436H333.21
		c-4.652,0-8.436-3.784-8.436-8.436V175.497h44.71l28.205,27.629c2.115,2.072,4.959,3.233,7.921,3.233h80.837L486.448,288.448
		L486.448,288.448z"/>
	<path style="fill:#231F20;" d="M497.767,376.201h-87.535l-28.205-27.629c-2.115-2.072-4.959-3.233-7.921-3.233h-60.65
		c-6.251,0-11.319,5.067-11.319,11.319v60.694H117.708v-46.471c0-6.251-5.067-11.319-11.319-11.319S95.07,364.63,95.07,370.882
		v57.789c0,6.251,5.067,11.319,11.319,11.319h195.748v40.938c0,17.134,13.939,31.074,31.074,31.074h144.803
		c17.134,0,31.074-13.939,31.074-31.074v-93.406C509.085,381.269,504.018,376.201,497.767,376.201z M486.448,480.926
		c0,4.652-3.784,8.436-8.436,8.436H333.21c-4.652,0-8.436-3.784-8.436-8.436V367.976h44.71l28.205,27.629
		c2.115,2.072,4.959,3.233,7.921,3.233h80.837L486.448,480.926L486.448,480.926z"/>
	<path style="fill:#231F20;" d="M106.389,336.735c6.251,0,11.319-5.067,11.319-11.319v-1.132c0-6.251-5.067-11.319-11.319-11.319
		s-11.319,5.067-11.319,11.319v1.132C95.07,331.667,100.138,336.735,106.389,336.735z"/>
</g>
</svg>